<svg width="160" height="58" viewBox="0 0 160 58" fill="none" xmlns="http://www.w3.org/2000/svg">
<path d="M60.1666 25.3641L59.7952 24.4356L60.1666 25.3641ZM159.374 8.07105C159.764 7.68053 159.764 7.04736 159.374 6.65684L153.01 0.292859C152.619 -0.0976653 151.986 -0.09767 151.595 0.292854C151.205 0.683378 151.205 1.31654 151.595 1.70707L157.252 7.36394L151.595 13.0208C151.205 13.4113 151.205 14.0445 151.595 14.435C151.986 14.8255 152.619 14.8255 153.01 14.435L159.374 8.07105ZM0.666444 56.363C1.33395 57.1076 1.3337 57.1078 1.3335 57.108C1.3335 57.108 1.33336 57.1081 1.33337 57.1081C1.3334 57.1081 1.33366 57.1078 1.33413 57.1074C1.33508 57.1066 1.33692 57.1049 1.33966 57.1025C1.34515 57.0977 1.35423 57.0897 1.36698 57.0785C1.39247 57.0563 1.43261 57.0215 1.48788 56.9746C1.59843 56.8806 1.76953 56.7377 2.00509 56.5477C2.47621 56.1678 3.20518 55.5998 4.22331 54.8594C6.25959 53.3786 9.45248 51.2082 14.0525 48.4732C23.2526 43.0032 38.0802 35.2758 60.538 26.2926L60.1666 25.3641L59.7952 24.4356C37.2527 33.4527 22.3302 41.2248 13.0304 46.7541C8.38032 49.5188 5.13574 51.723 3.04703 53.2419C2.00268 54.0014 1.24728 54.5896 0.749658 54.9908C0.500847 55.1915 0.31648 55.3454 0.192659 55.4506C0.130748 55.5032 0.0839741 55.5437 0.0518494 55.5717C0.035787 55.5857 0.0233871 55.5967 0.0145885 55.6044C0.0101893 55.6083 0.00669058 55.6114 0.00408419 55.6138C0.00278115 55.6149 0.00170145 55.6159 0.000843822 55.6167C0.000414952 55.617 -6.18364e-05 55.6175 -0.000276186 55.6177C-0.000697669 55.618 -0.00106335 55.6184 0.666444 56.363ZM60.1666 25.3641L60.538 26.2926C82.9239 17.3381 107.452 12.8519 126.409 10.607C135.883 9.48513 143.953 8.92429 149.653 8.64397C152.503 8.50381 154.76 8.43381 156.302 8.39884C157.074 8.38135 157.667 8.37263 158.066 8.36828C158.265 8.3661 158.416 8.36502 158.517 8.36448C158.567 8.36421 158.605 8.36407 158.63 8.36401C158.643 8.36397 158.652 8.36396 158.658 8.36395C158.661 8.36395 158.663 8.36394 158.665 8.36395C158.665 8.36394 158.666 8.36394 158.666 8.36394C158.666 8.36394 158.667 8.36394 158.667 7.36394C158.667 6.36394 158.666 6.36394 158.666 6.36394C158.665 6.36394 158.664 6.36394 158.663 6.36394C158.662 6.36395 158.659 6.36395 158.655 6.36395C158.649 6.36396 158.638 6.36398 158.625 6.36402C158.598 6.36408 158.559 6.36423 158.506 6.3645C158.402 6.36507 158.247 6.36618 158.044 6.36839C157.637 6.37283 157.037 6.38168 156.257 6.39935C154.698 6.43468 152.424 6.50529 149.555 6.64638C143.818 6.92854 135.701 7.49269 126.174 8.62084C107.131 10.8759 82.4096 15.3898 59.7952 24.4356L60.1666 25.3641Z" fill="black"/>
</svg>

