<svg width="1280" height="431" viewBox="0 0 1280 431" fill="none" xmlns="http://www.w3.org/2000/svg">
<path d="M472.76 249.52C470.813 249.52 469.067 249.227 467.52 248.64C465.973 248.053 464.667 247.2 463.6 246.08C462.533 244.933 461.72 243.533 461.16 241.88C460.6 240.2 460.32 238.28 460.32 236.12C460.32 233.933 460.6 231.973 461.16 230.24C461.747 228.507 462.573 227.04 463.64 225.84C464.707 224.613 465.987 223.68 467.48 223.04C468.973 222.4 470.64 222.08 472.48 222.08C473.893 222.08 475.2 222.28 476.4 222.68C477.6 223.053 478.64 223.6 479.52 224.32C480.4 225.04 481.08 225.92 481.56 226.96C482.067 228 482.333 229.173 482.36 230.48L478.24 231.52C478.267 230.24 478 229.187 477.44 228.36C476.907 227.507 476.187 226.867 475.28 226.44C474.373 226.013 473.4 225.8 472.36 225.8C471.4 225.8 470.467 225.987 469.56 226.36C468.653 226.733 467.84 227.333 467.12 228.16C466.427 228.96 465.867 230 465.44 231.28C465.04 232.56 464.84 234.107 464.84 235.92C464.84 238.24 465.173 240.133 465.84 241.6C466.533 243.04 467.48 244.107 468.68 244.8C469.907 245.467 471.307 245.8 472.88 245.8C474.453 245.8 475.707 245.493 476.64 244.88C477.573 244.267 478.253 243.453 478.68 242.44C479.133 241.4 479.387 240.227 479.44 238.92L483.32 239.6C483.293 240.96 483.08 242.253 482.68 243.48C482.28 244.68 481.653 245.733 480.8 246.64C479.973 247.547 478.893 248.253 477.56 248.76C476.227 249.267 474.627 249.52 472.76 249.52ZM487.836 249V220.8H492.116V249H487.836ZM498.109 249V228.2H502.429V249H498.109ZM500.269 224.72C499.336 224.72 498.629 224.533 498.149 224.16C497.669 223.76 497.429 223.173 497.429 222.4C497.429 221.653 497.669 221.08 498.149 220.68C498.629 220.28 499.336 220.08 500.269 220.08C501.229 220.08 501.949 220.28 502.429 220.68C502.909 221.08 503.149 221.653 503.149 222.4C503.149 223.173 502.909 223.76 502.429 224.16C501.949 224.533 501.229 224.72 500.269 224.72ZM517.581 249.52C515.794 249.52 514.248 249.24 512.941 248.68C511.661 248.12 510.608 247.347 509.781 246.36C508.954 245.373 508.341 244.24 507.941 242.96C507.541 241.68 507.341 240.307 507.341 238.84C507.341 237.267 507.554 235.813 507.981 234.48C508.408 233.12 509.034 231.933 509.861 230.92C510.714 229.88 511.768 229.08 513.021 228.52C514.274 227.96 515.728 227.68 517.381 227.68C519.008 227.68 520.421 227.96 521.621 228.52C522.848 229.053 523.848 229.827 524.621 230.84C525.394 231.827 525.901 232.987 526.141 234.32L522.061 235.56C521.981 234.787 521.754 234.067 521.381 233.4C521.008 232.733 520.474 232.213 519.781 231.84C519.088 231.44 518.248 231.24 517.261 231.24C516.328 231.24 515.514 231.427 514.821 231.8C514.128 232.147 513.554 232.667 513.101 233.36C512.648 234.027 512.301 234.813 512.061 235.72C511.848 236.627 511.741 237.627 511.741 238.72C511.741 240.213 511.941 241.52 512.341 242.64C512.768 243.733 513.421 244.587 514.301 245.2C515.181 245.787 516.288 246.08 517.621 246.08C518.741 246.08 519.661 245.88 520.381 245.48C521.101 245.08 521.661 244.547 522.061 243.88C522.461 243.187 522.728 242.387 522.861 241.48L526.741 242.4C526.581 243.493 526.261 244.493 525.781 245.4C525.301 246.28 524.674 247.027 523.901 247.64C523.128 248.253 522.208 248.72 521.141 249.04C520.101 249.36 518.914 249.52 517.581 249.52ZM530.648 249V220.76H534.928V236.72C535.915 236.187 536.848 235.573 537.728 234.88C538.635 234.16 539.462 233.413 540.208 232.64C540.982 231.867 541.648 231.107 542.208 230.36C542.795 229.587 543.248 228.867 543.568 228.2H548.608C548.128 229.213 547.515 230.227 546.768 231.24C546.048 232.227 545.222 233.16 544.288 234.04C543.355 234.893 542.328 235.64 541.208 236.28C540.115 236.893 538.968 237.32 537.768 237.56V238.08C539.262 237.92 540.542 238.04 541.608 238.44C542.675 238.84 543.595 239.44 544.368 240.24C545.142 241.04 545.822 241.973 546.408 243.04C547.022 244.08 547.595 245.147 548.128 246.24L549.248 249H544.448L543.648 247.12C543.062 245.76 542.435 244.56 541.768 243.52C541.128 242.453 540.355 241.613 539.448 241C538.568 240.387 537.475 240.08 536.168 240.08H534.928V249H530.648ZM569.794 249.44C567.741 249.44 566.207 248.88 565.194 247.76C564.207 246.64 563.714 244.92 563.714 242.6V231.76H560.634L560.714 228.2H562.714C563.407 228.2 563.927 228.093 564.274 227.88C564.621 227.64 564.834 227.227 564.914 226.64L565.314 223.56H567.914V228.2H573.634V231.84H567.914V242.48C567.914 243.52 568.154 244.267 568.634 244.72C569.114 245.173 569.821 245.4 570.754 245.4C571.261 245.4 571.767 245.347 572.274 245.24C572.807 245.107 573.314 244.867 573.794 244.52V248.72C572.994 248.987 572.261 249.173 571.594 249.28C570.927 249.387 570.327 249.44 569.794 249.44ZM586.916 249.52C584.916 249.52 583.143 249.093 581.596 248.24C580.049 247.387 578.836 246.147 577.956 244.52C577.103 242.893 576.676 240.893 576.676 238.52C576.676 236.093 577.129 234.08 578.036 232.48C578.943 230.88 580.156 229.68 581.676 228.88C583.223 228.08 584.956 227.68 586.876 227.68C588.849 227.68 590.609 228.093 592.156 228.92C593.703 229.747 594.916 230.973 595.796 232.6C596.703 234.227 597.156 236.253 597.156 238.68C597.156 241.08 596.703 243.093 595.796 244.72C594.916 246.32 593.703 247.52 592.156 248.32C590.609 249.12 588.863 249.52 586.916 249.52ZM587.076 246.08C588.276 246.08 589.303 245.8 590.156 245.24C591.009 244.68 591.663 243.853 592.116 242.76C592.569 241.667 592.796 240.36 592.796 238.84C592.796 237.267 592.556 235.92 592.076 234.8C591.596 233.653 590.903 232.773 589.996 232.16C589.116 231.547 588.036 231.24 586.756 231.24C585.609 231.24 584.596 231.52 583.716 232.08C582.863 232.613 582.209 233.427 581.756 234.52C581.303 235.587 581.076 236.893 581.076 238.44C581.076 240.867 581.609 242.747 582.676 244.08C583.743 245.413 585.209 246.08 587.076 246.08ZM619.74 249.52C618.3 249.52 617.02 249.373 615.9 249.08C614.78 248.787 613.82 248.373 613.02 247.84C612.247 247.28 611.647 246.613 611.22 245.84C610.794 245.067 610.54 244.227 610.46 243.32L613.98 242.16C613.98 242.933 614.22 243.627 614.7 244.24C615.18 244.853 615.86 245.333 616.74 245.68C617.647 246 618.727 246.16 619.98 246.16C621.447 246.16 622.58 245.92 623.38 245.44C624.18 244.96 624.58 244.293 624.58 243.44C624.58 242.8 624.354 242.293 623.9 241.92C623.474 241.547 622.847 241.24 622.02 241C621.22 240.76 620.274 240.533 619.18 240.32C618.194 240.107 617.207 239.867 616.22 239.6C615.26 239.307 614.367 238.933 613.54 238.48C612.74 238.027 612.087 237.44 611.58 236.72C611.1 235.973 610.86 235.04 610.86 233.92C610.86 232.64 611.194 231.547 611.86 230.64C612.527 229.707 613.487 228.987 614.74 228.48C616.02 227.947 617.54 227.68 619.3 227.68C621.007 227.68 622.474 227.933 623.7 228.44C624.954 228.947 625.954 229.653 626.7 230.56C627.447 231.467 627.9 232.533 628.06 233.76L624.38 234.84C624.327 234.013 624.074 233.32 623.62 232.76C623.194 232.2 622.607 231.787 621.86 231.52C621.114 231.227 620.234 231.08 619.22 231.08C617.887 231.08 616.834 231.32 616.06 231.8C615.314 232.28 614.94 232.933 614.94 233.76C614.94 234.4 615.167 234.92 615.62 235.32C616.1 235.693 616.74 236 617.54 236.24C618.367 236.453 619.3 236.667 620.34 236.88C621.407 237.093 622.434 237.333 623.42 237.6C624.407 237.867 625.287 238.227 626.06 238.68C626.86 239.107 627.487 239.693 627.94 240.44C628.42 241.16 628.66 242.08 628.66 243.2C628.66 244.56 628.287 245.72 627.54 246.68C626.82 247.613 625.794 248.32 624.46 248.8C623.127 249.28 621.554 249.52 619.74 249.52ZM633.266 255.56V238.68V228.2H637.026L636.906 233.68L637.546 233.72C637.839 232.467 638.279 231.4 638.866 230.52C639.452 229.613 640.199 228.92 641.106 228.44C642.039 227.933 643.146 227.68 644.426 227.68C646.292 227.68 647.866 228.147 649.146 229.08C650.452 230.013 651.426 231.307 652.066 232.96C652.732 234.613 653.066 236.507 653.066 238.64C653.066 240.72 652.746 242.587 652.106 244.24C651.492 245.867 650.559 247.16 649.306 248.12C648.052 249.053 646.519 249.52 644.706 249.52C643.292 249.52 642.119 249.24 641.186 248.68C640.252 248.093 639.492 247.333 638.906 246.4C638.319 245.44 637.866 244.387 637.546 243.24H636.826C636.986 243.96 637.119 244.707 637.226 245.48C637.332 246.227 637.426 246.973 637.506 247.72C637.586 248.467 637.626 249.173 637.626 249.84V255.56H633.266ZM643.426 245.88C644.519 245.88 645.439 245.573 646.186 244.96C646.959 244.32 647.546 243.453 647.946 242.36C648.346 241.267 648.546 240.013 648.546 238.6C648.546 237.133 648.332 235.867 647.906 234.8C647.506 233.733 646.919 232.907 646.146 232.32C645.372 231.707 644.452 231.4 643.386 231.4C642.452 231.4 641.626 231.613 640.906 232.04C640.186 232.467 639.572 233.027 639.066 233.72C638.586 234.387 638.212 235.133 637.946 235.96C637.706 236.76 637.586 237.547 637.586 238.32V238.92C637.586 239.453 637.666 240.027 637.826 240.64C637.986 241.253 638.212 241.867 638.506 242.48C638.826 243.093 639.212 243.667 639.666 244.2C640.146 244.707 640.692 245.12 641.306 245.44C641.946 245.733 642.652 245.88 643.426 245.88ZM657.992 249V228.2H662.312V249H657.992ZM660.152 224.72C659.219 224.72 658.512 224.533 658.032 224.16C657.552 223.76 657.312 223.173 657.312 222.4C657.312 221.653 657.552 221.08 658.032 220.68C658.512 220.28 659.219 220.08 660.152 220.08C661.112 220.08 661.832 220.28 662.312 220.68C662.792 221.08 663.032 221.653 663.032 222.4C663.032 223.173 662.792 223.76 662.312 224.16C661.832 224.533 661.112 224.72 660.152 224.72ZM668.344 249V220.8H672.624V249H668.344ZM678.617 249V220.8H682.897V249H678.617ZM705.614 249.44C703.561 249.44 702.028 248.88 701.014 247.76C700.028 246.64 699.534 244.92 699.534 242.6V231.76H696.454L696.534 228.2H698.534C699.228 228.2 699.748 228.093 700.094 227.88C700.441 227.64 700.654 227.227 700.734 226.64L701.134 223.56H703.734V228.2H709.454V231.84H703.734V242.48C703.734 243.52 703.974 244.267 704.454 244.72C704.934 245.173 705.641 245.4 706.574 245.4C707.081 245.4 707.588 245.347 708.094 245.24C708.628 245.107 709.134 244.867 709.614 244.52V248.72C708.814 248.987 708.081 249.173 707.414 249.28C706.748 249.387 706.148 249.44 705.614 249.44ZM713.93 249V236.24V220.8H718.33V227.28C718.33 227.84 718.316 228.427 718.29 229.04C718.263 229.627 718.21 230.227 718.13 230.84C718.05 231.453 717.97 232.067 717.89 232.68C717.81 233.293 717.716 233.92 717.61 234.56H718.33C718.73 233.067 719.223 231.813 719.81 230.8C720.423 229.76 721.183 228.987 722.09 228.48C723.023 227.947 724.143 227.68 725.45 227.68C727.85 227.68 729.636 228.52 730.81 230.2C731.983 231.853 732.57 234.347 732.57 237.68V249H728.17V238.24C728.17 235.893 727.81 234.173 727.09 233.08C726.396 231.987 725.343 231.44 723.93 231.44C722.756 231.44 721.77 231.787 720.97 232.48C720.196 233.173 719.583 234.107 719.13 235.28C718.676 236.453 718.383 237.787 718.25 239.28V249H713.93ZM747.426 249.52C745.772 249.52 744.306 249.28 743.026 248.8C741.746 248.293 740.666 247.587 739.786 246.68C738.906 245.747 738.239 244.64 737.786 243.36C737.332 242.053 737.106 240.587 737.106 238.96C737.106 237.333 737.332 235.84 737.786 234.48C738.239 233.093 738.879 231.893 739.706 230.88C740.559 229.867 741.599 229.08 742.826 228.52C744.079 227.96 745.492 227.68 747.066 227.68C748.532 227.68 749.839 227.92 750.986 228.4C752.159 228.88 753.146 229.613 753.946 230.6C754.746 231.56 755.346 232.773 755.746 234.24C756.146 235.68 756.292 237.373 756.186 239.32L739.906 239.44V236.72L753.626 236.6L752.106 238.28C752.266 236.68 752.132 235.36 751.706 234.32C751.279 233.28 750.666 232.507 749.866 232C749.066 231.493 748.146 231.24 747.106 231.24C745.932 231.24 744.906 231.547 744.026 232.16C743.172 232.747 742.506 233.613 742.026 234.76C741.546 235.907 741.306 237.28 741.306 238.88C741.306 241.28 741.839 243.093 742.906 244.32C743.972 245.52 745.492 246.12 747.466 246.12C748.292 246.12 748.999 246.027 749.586 245.84C750.172 245.627 750.666 245.36 751.066 245.04C751.466 244.693 751.786 244.293 752.026 243.84C752.292 243.36 752.506 242.867 752.666 242.36L756.466 243.24C756.226 244.227 755.852 245.107 755.346 245.88C754.866 246.627 754.252 247.28 753.506 247.84C752.759 248.373 751.879 248.787 750.866 249.08C749.879 249.373 748.732 249.52 747.426 249.52ZM777.802 249.44C775.749 249.44 774.215 248.88 773.202 247.76C772.215 246.64 771.722 244.92 771.722 242.6V231.76H768.642L768.722 228.2H770.722C771.415 228.2 771.935 228.093 772.282 227.88C772.629 227.64 772.842 227.227 772.922 226.64L773.322 223.56H775.922V228.2H781.642V231.84H775.922V242.48C775.922 243.52 776.162 244.267 776.642 244.72C777.122 245.173 777.829 245.4 778.762 245.4C779.269 245.4 779.775 245.347 780.282 245.24C780.815 245.107 781.322 244.867 781.802 244.52V248.72C781.002 248.987 780.269 249.173 779.602 249.28C778.935 249.387 778.335 249.44 777.802 249.44ZM795.082 249.52C793.429 249.52 791.962 249.28 790.682 248.8C789.402 248.293 788.322 247.587 787.442 246.68C786.562 245.747 785.895 244.64 785.442 243.36C784.989 242.053 784.762 240.587 784.762 238.96C784.762 237.333 784.989 235.84 785.442 234.48C785.895 233.093 786.535 231.893 787.362 230.88C788.215 229.867 789.255 229.08 790.482 228.52C791.735 227.96 793.149 227.68 794.722 227.68C796.189 227.68 797.495 227.92 798.642 228.4C799.815 228.88 800.802 229.613 801.602 230.6C802.402 231.56 803.002 232.773 803.402 234.24C803.802 235.68 803.949 237.373 803.842 239.32L787.562 239.44V236.72L801.282 236.6L799.762 238.28C799.922 236.68 799.789 235.36 799.362 234.32C798.935 233.28 798.322 232.507 797.522 232C796.722 231.493 795.802 231.24 794.762 231.24C793.589 231.24 792.562 231.547 791.682 232.16C790.829 232.747 790.162 233.613 789.682 234.76C789.202 235.907 788.962 237.28 788.962 238.88C788.962 241.28 789.495 243.093 790.562 244.32C791.629 245.52 793.149 246.12 795.122 246.12C795.949 246.12 796.655 246.027 797.242 245.84C797.829 245.627 798.322 245.36 798.722 245.04C799.122 244.693 799.442 244.293 799.682 243.84C799.949 243.36 800.162 242.867 800.322 242.36L804.122 243.24C803.882 244.227 803.509 245.107 803.002 245.88C802.522 246.627 801.909 247.28 801.162 247.84C800.415 248.373 799.535 248.787 798.522 249.08C797.535 249.373 796.389 249.52 795.082 249.52ZM813.652 249.52C812.505 249.52 811.478 249.307 810.572 248.88C809.665 248.427 808.945 247.76 808.412 246.88C807.905 246 807.652 244.907 807.652 243.6C807.652 242.56 807.838 241.667 808.212 240.92C808.612 240.147 809.198 239.507 809.972 239C810.772 238.467 811.785 238.04 813.012 237.72C814.238 237.373 815.692 237.08 817.372 236.84C818.305 236.707 819.065 236.573 819.652 236.44C820.265 236.307 820.705 236.093 820.972 235.8C821.265 235.507 821.412 235.067 821.412 234.48C821.412 233.573 821.092 232.8 820.452 232.16C819.838 231.493 818.838 231.16 817.452 231.16C816.678 231.16 815.905 231.293 815.132 231.56C814.385 231.827 813.732 232.267 813.172 232.88C812.638 233.467 812.278 234.267 812.092 235.28L808.172 234.04C808.412 233.027 808.798 232.133 809.332 231.36C809.865 230.56 810.532 229.893 811.332 229.36C812.132 228.8 813.052 228.387 814.092 228.12C815.158 227.827 816.318 227.68 817.572 227.68C819.412 227.68 820.932 227.987 822.132 228.6C823.332 229.213 824.225 230.16 824.812 231.44C825.425 232.693 825.732 234.307 825.732 236.28V240.52C825.732 241.4 825.745 242.333 825.772 243.32C825.825 244.28 825.878 245.253 825.932 246.24C826.012 247.2 826.105 248.12 826.212 249H822.252C822.172 248.2 822.092 247.373 822.012 246.52C821.958 245.667 821.905 244.8 821.852 243.92H821.252C820.878 244.933 820.345 245.867 819.652 246.72C818.985 247.573 818.145 248.253 817.132 248.76C816.145 249.267 814.985 249.52 813.652 249.52ZM815.172 246.16C815.732 246.16 816.292 246.067 816.852 245.88C817.438 245.693 818.012 245.413 818.572 245.04C819.158 244.64 819.692 244.133 820.172 243.52C820.678 242.907 821.118 242.173 821.492 241.32L821.452 237.56L822.492 237.76C822.038 238.16 821.465 238.467 820.772 238.68C820.105 238.893 819.372 239.067 818.572 239.2C817.772 239.307 816.972 239.44 816.172 239.6C815.398 239.733 814.678 239.933 814.012 240.2C813.372 240.44 812.852 240.787 812.452 241.24C812.078 241.693 811.892 242.32 811.892 243.12C811.892 244.107 812.198 244.867 812.812 245.4C813.425 245.907 814.212 246.16 815.172 246.16Z" fill="black"/>
<ellipse cx="928.261" cy="97.4773" rx="70.8333" ry="9.89583" transform="rotate(-40.5409 928.261 97.4773)" fill="#D9D9D9" stroke="black" stroke-width="2"/>
<path d="M1081.96 168.197L1082.08 168.344C1086.88 174.717 1067.11 200.092 1037.61 225.322C1007.88 250.749 979.535 266.4 974.3 260.28L874.432 143.518C877.984 147.671 904.964 130.426 934.693 104.998C964.191 79.7684 985.312 55.9633 982.169 51.5368L982.09 51.4358L1081.96 168.197Z" fill="#F6F2ED"/>
<path d="M1081.96 168.197L1082.74 167.571L1082.73 167.559L1082.72 167.547L1081.96 168.197ZM1082.08 168.344L1082.87 167.742L1082.87 167.73L1082.86 167.718L1082.08 168.344ZM1037.61 225.322L1038.26 226.082L1038.26 226.082L1037.61 225.322ZM934.693 104.998L935.343 105.758L935.343 105.758L934.693 104.998ZM982.169 51.5368L982.984 50.9579L982.972 50.9398L982.958 50.9223L982.169 51.5368ZM982.09 51.4358L982.85 50.7858L981.301 52.0503L982.09 51.4358ZM1081.96 168.197L1081.18 168.823L1081.3 168.971L1082.08 168.344L1082.86 167.718L1082.74 167.571L1081.96 168.197ZM1082.08 168.344L1081.28 168.947C1081.67 169.47 1081.88 170.278 1081.76 171.486C1081.64 172.693 1081.19 174.197 1080.39 175.98C1078.8 179.542 1075.91 184.027 1071.92 189.147C1063.94 199.374 1051.67 211.977 1036.96 224.562L1037.61 225.322L1038.26 226.082C1053.04 213.437 1065.41 200.738 1073.5 190.377C1077.53 185.202 1080.53 180.571 1082.22 176.796C1083.06 174.909 1083.6 173.188 1083.75 171.689C1083.9 170.191 1083.68 168.812 1082.87 167.742L1082.08 168.344ZM1037.61 225.322L1036.96 224.562C1022.13 237.245 1007.67 247.471 996.285 253.756C990.587 256.902 985.709 259.034 981.968 260.008C980.095 260.495 978.564 260.677 977.385 260.581C976.21 260.486 975.485 260.127 975.06 259.63L974.3 260.28L973.54 260.93C974.424 261.963 975.73 262.454 977.223 262.575C978.712 262.695 980.486 262.46 982.472 261.943C986.447 260.909 991.494 258.687 997.252 255.507C1008.78 249.139 1023.36 238.826 1038.26 226.082L1037.61 225.322ZM974.3 260.28L975.06 259.63L875.192 142.868L874.432 143.518L873.672 144.168L973.54 260.93L974.3 260.28ZM874.432 143.518L873.672 144.168C874.451 145.079 875.708 145.226 876.93 145.092C878.201 144.954 879.763 144.482 881.544 143.753C885.12 142.289 889.814 139.691 895.285 136.193C906.24 129.191 920.455 118.492 935.343 105.758L934.693 104.998L934.043 104.238C919.203 116.931 905.063 127.569 894.208 134.508C888.774 137.982 884.198 140.505 880.787 141.902C879.075 142.603 877.713 142.995 876.713 143.104C875.664 143.218 875.3 142.995 875.192 142.868L874.432 143.518ZM934.693 104.998L935.343 105.758C950.116 93.1228 962.806 80.832 971.419 71.1301C975.721 66.2843 979.033 62.0549 981.076 58.7337C982.095 57.0782 982.829 55.6007 983.2 54.3552C983.555 53.1614 983.657 51.9053 982.984 50.9579L982.169 51.5368L981.354 52.1157C981.467 52.2749 981.596 52.7311 981.283 53.7848C980.985 54.787 980.353 56.0927 979.373 57.6855C977.419 60.8611 974.196 64.9898 969.923 69.8023C961.387 79.4171 948.768 91.6436 934.043 104.238L934.693 104.998ZM982.169 51.5368L982.958 50.9223L982.879 50.8212L982.09 51.4358L981.301 52.0503L981.38 52.1513L982.169 51.5368ZM982.09 51.4358L981.33 52.0858L1081.2 168.847L1081.96 168.197L1082.72 167.547L982.85 50.7858L982.09 51.4358Z" fill="black"/>
<path d="M928.261 97.4769C948.184 80.4364 966.873 67.0702 978.103 61.3567C970.718 71.5654 954.617 87.9571 934.694 104.998C914.77 122.039 896.081 135.404 884.85 141.117C892.236 130.908 908.338 114.518 928.261 97.4769Z" fill="#C8A67A"/>
<path d="M928.261 97.4769L927.611 96.717L927.611 96.717L928.261 97.4769ZM978.103 61.3567L978.913 61.9428L977.649 60.4654L978.103 61.3567ZM934.694 104.998L935.344 105.758L935.344 105.758L934.694 104.998ZM884.85 141.117L884.04 140.531L885.304 142.008L884.85 141.117ZM928.261 97.4769L928.911 98.2369C948.817 81.2112 967.433 67.9069 978.556 62.2479L978.103 61.3567L977.649 60.4654C966.312 66.2335 947.552 79.6616 927.611 96.717L928.261 97.4769ZM978.103 61.3567L977.293 60.7705C969.978 70.8818 953.95 87.2121 934.044 104.238L934.694 104.998L935.344 105.758C955.284 88.7021 971.457 72.2491 978.913 61.9428L978.103 61.3567ZM934.694 104.998L934.044 104.238C914.138 121.264 895.52 134.567 884.397 140.226L884.85 141.117L885.304 142.008C896.641 136.241 915.403 122.813 935.344 105.758L934.694 104.998ZM884.85 141.117L885.661 141.703C892.975 131.592 909.005 115.263 928.911 98.2369L928.261 97.4769L927.611 96.717C907.671 113.773 891.496 130.225 884.04 140.531L884.85 141.117Z" fill="black"/>
<path d="M998.444 65.5482L995.971 67.6641L998.002 70.0389L1000.28 68.0923C1021.97 49.5356 1054.6 52.0803 1073.16 73.7759C1091.72 95.4716 1089.17 128.103 1067.48 146.659L1065.2 148.606L1067.57 151.376L1070.05 149.261C1093.16 129.489 1095.87 94.7206 1076.1 71.6041C1056.33 48.4876 1021.56 45.7762 998.444 65.5482Z" fill="#F6F2ED" stroke="black" stroke-width="2"/>
</svg>
