<svg width="1280" height="431" viewBox="0 0 1280 431" fill="none" xmlns="http://www.w3.org/2000/svg">
<ellipse cx="827.363" cy="189.229" rx="70.8333" ry="9.89583" transform="rotate(-89.6219 827.363 189.229)" fill="#D9D9D9" stroke="black" stroke-width="2"/>
<path d="M981.473 119.411L981.661 119.418C989.625 119.96 995.845 151.525 995.589 190.34C995.331 229.459 988.592 261.128 980.538 261.075L826.896 260.061C832.361 260.097 837.001 228.414 837.259 189.295C837.515 150.48 833.361 118.928 827.958 118.404L827.83 118.397L981.473 119.411Z" fill="#F6F2ED"/>
<path d="M981.473 119.411L981.51 118.412L981.495 118.411L981.479 118.411L981.473 119.411ZM981.661 119.418L981.729 118.42L981.714 118.419L981.699 118.419L981.661 119.418ZM995.589 190.34L996.589 190.346L996.589 190.346L995.589 190.34ZM837.259 189.295L838.259 189.301L838.259 189.301L837.259 189.295ZM827.958 118.404L828.055 117.409L828.033 117.406L828.011 117.405L827.958 118.404ZM827.83 118.397L827.837 117.397L827.778 119.396L827.83 118.397ZM981.473 119.411L981.435 120.41L981.623 120.417L981.661 119.418L981.699 118.419L981.51 118.412L981.473 119.411ZM981.661 119.418L981.593 120.416C982.248 120.46 982.996 120.83 983.828 121.714C984.659 122.598 985.501 123.923 986.327 125.693C987.977 129.229 989.474 134.348 990.726 140.719C993.228 153.447 994.717 170.972 994.589 190.333L995.589 190.34L996.589 190.346C996.717 170.893 995.223 153.228 992.689 140.334C991.423 133.894 989.888 128.595 988.139 124.847C987.266 122.975 986.317 121.442 985.285 120.344C984.253 119.247 983.065 118.511 981.729 118.42L981.661 119.418ZM995.589 190.34L994.589 190.333C994.46 209.846 992.714 227.472 990.009 240.189C988.654 246.555 987.069 251.638 985.355 255.103C984.496 256.837 983.63 258.113 982.786 258.941C981.944 259.767 981.198 260.079 980.544 260.075L980.538 261.075L980.531 262.075C981.891 262.084 983.117 261.418 984.186 260.369C985.253 259.323 986.237 257.828 987.147 255.99C988.969 252.308 990.596 247.039 991.965 240.605C994.706 227.72 996.459 209.953 996.589 190.346L995.589 190.34ZM980.538 261.075L980.544 260.075L826.902 259.061L826.896 260.061L826.889 261.061L980.531 262.075L980.538 261.075ZM826.896 260.061L826.889 261.061C828.088 261.069 829.022 260.215 829.721 259.204C830.45 258.153 831.116 256.664 831.732 254.84C832.968 251.179 834.078 245.931 835.019 239.506C836.904 226.641 838.13 208.892 838.259 189.301L837.259 189.295L836.259 189.288C836.13 208.816 834.907 226.469 833.041 239.216C832.106 245.598 831.016 250.708 829.837 254.2C829.245 255.953 828.65 257.239 828.077 258.066C827.476 258.934 827.069 259.062 826.902 259.061L826.896 260.061ZM837.259 189.295L838.259 189.301C838.387 169.863 837.412 152.224 835.722 139.36C834.879 132.936 833.852 127.663 832.681 123.943C832.097 122.089 831.461 120.567 830.763 119.471C830.094 118.421 829.211 117.521 828.055 117.409L827.958 118.404L827.862 119.399C828.056 119.418 828.486 119.619 829.076 120.546C829.638 121.428 830.212 122.76 830.773 124.544C831.893 128.101 832.901 133.24 833.739 139.621C835.414 152.369 836.387 169.912 836.259 189.288L837.259 189.295ZM827.958 118.404L828.011 117.405L827.883 117.398L827.83 118.397L827.778 119.396L827.906 119.402L827.958 118.404ZM827.83 118.397L827.824 119.397L981.466 120.411L981.473 119.411L981.479 118.411L827.837 117.397L827.83 118.397Z" fill="black"/>
<path d="M981.473 119.411L981.661 119.418C989.625 119.959 995.845 151.525 995.589 190.339C995.331 229.458 988.592 261.128 980.538 261.074L826.896 260.061C832.361 260.097 837.001 228.414 837.259 189.294C837.515 150.48 833.361 118.928 827.958 118.403L827.83 118.397L981.473 119.411Z" fill="#F6F2ED"/>
<path d="M981.473 119.411L981.51 118.411L981.495 118.411L981.479 118.411L981.473 119.411ZM981.661 119.418L981.729 118.42L981.714 118.419L981.699 118.418L981.661 119.418ZM995.589 190.339L996.589 190.346L996.589 190.346L995.589 190.339ZM837.259 189.294L838.259 189.301L838.259 189.301L837.259 189.294ZM827.958 118.403L828.055 117.408L828.033 117.406L828.011 117.405L827.958 118.403ZM827.83 118.397L827.837 117.397L827.778 119.395L827.83 118.397ZM981.473 119.411L981.435 120.41L981.623 120.417L981.661 119.418L981.699 118.418L981.51 118.411L981.473 119.411ZM981.661 119.418L981.593 120.415C982.248 120.46 982.996 120.829 983.828 121.714C984.659 122.597 985.501 123.922 986.327 125.692C987.976 129.228 989.474 134.348 990.726 140.719C993.228 153.447 994.717 170.972 994.589 190.333L995.589 190.339L996.589 190.346C996.717 170.892 995.223 153.227 992.689 140.333C991.423 133.894 989.888 128.594 988.139 124.847C987.266 122.974 986.317 121.441 985.285 120.343C984.253 119.246 983.065 118.511 981.729 118.42L981.661 119.418ZM995.589 190.339L994.589 190.333C994.46 209.846 992.714 227.472 990.009 240.188C988.654 246.555 987.069 251.638 985.355 255.102C984.496 256.836 983.63 258.113 982.786 258.941C981.944 259.766 981.198 260.079 980.544 260.074L980.538 261.074L980.531 262.074C981.891 262.083 983.117 261.418 984.186 260.369C985.253 259.322 986.237 257.828 987.147 255.989C988.969 252.308 990.596 247.039 991.965 240.605C994.706 227.72 996.459 209.952 996.589 190.346L995.589 190.339ZM980.538 261.074L980.544 260.074L826.902 259.061L826.896 260.061L826.889 261.061L980.531 262.074L980.538 261.074ZM826.896 260.061L826.889 261.061C828.088 261.068 829.022 260.215 829.721 259.204C830.45 258.152 831.116 256.663 831.732 254.84C832.968 251.179 834.078 245.93 835.019 239.506C836.904 226.641 838.13 208.892 838.259 189.301L837.259 189.294L836.259 189.288C836.13 208.816 834.907 226.468 833.041 239.216C832.106 245.597 831.016 250.708 829.837 254.2C829.245 255.953 828.65 257.238 828.077 258.065C827.476 258.933 827.069 259.062 826.902 259.061L826.896 260.061ZM837.259 189.294L838.259 189.301C838.387 169.863 837.412 152.223 835.722 139.36C834.879 132.935 833.852 127.663 832.681 123.943C832.097 122.089 831.461 120.566 830.763 119.471C830.094 118.42 829.211 117.52 828.055 117.408L827.958 118.403L827.862 119.399C828.056 119.418 828.486 119.618 829.076 120.546C829.638 121.427 830.212 122.759 830.773 124.543C831.893 128.1 832.901 133.24 833.739 139.62C835.414 152.368 836.387 169.912 836.259 189.288L837.259 189.294ZM827.958 118.403L828.011 117.405L827.883 117.398L827.83 118.397L827.778 119.395L827.906 119.402L827.958 118.403ZM827.83 118.397L827.824 119.397L981.466 120.411L981.473 119.411L981.479 118.411L827.837 117.397L827.83 118.397Z" fill="black"/>
<path d="M849.206 115.283L849.185 118.538L852.31 118.559L852.329 115.564C852.518 87.0155 875.813 64.0251 904.362 64.2135C932.91 64.4019 955.901 87.6978 955.712 116.246L955.693 119.241L959.338 119.265L959.36 116.01C959.561 85.5917 935.065 60.7702 904.646 60.5695C874.228 60.3688 849.407 84.8648 849.206 115.283Z" fill="#F6F2ED" stroke="black" stroke-width="2"/>
<path d="M759.388 231.423C780.275 236.219 794.174 240.89 802.673 245.017C806.928 247.083 809.77 248.984 811.456 250.652C813.125 252.301 813.493 253.541 813.326 254.401C813.308 254.421 813.277 254.454 813.222 254.498C813.062 254.629 812.797 254.796 812.395 254.993C811.595 255.386 810.417 255.826 808.867 256.336C805.762 257.358 801.406 258.587 796.025 260.24C785.314 263.532 770.807 268.43 755.355 276.379C743.31 282.576 730.676 288.029 718.783 291.404C706.872 294.785 695.803 296.054 686.839 293.995C666.028 289.216 648.048 280.919 636.808 272.411C631.175 268.147 627.325 263.897 625.601 260.09C624.744 258.199 624.432 256.46 624.639 254.9C624.843 253.371 625.557 251.934 626.896 250.621C631.173 247.494 638.937 244.115 648.933 240.957C658.944 237.794 671.098 234.882 684.015 232.673C709.88 228.248 738.663 226.663 759.388 231.423Z" fill="#C6A177" stroke="black" stroke-width="2"/>
</svg>
