<svg width="1280" height="431" viewBox="0 0 1280 431" fill="none" xmlns="http://www.w3.org/2000/svg">
<ellipse cx="827.248" cy="195.168" rx="70.8334" ry="9.89577" transform="rotate(-90 827.248 195.168)" fill="#D9D9D9" stroke="black" stroke-width="2"/>
<path d="M848.602 121.077L848.602 124.333L851.727 124.333L851.727 121.338C851.727 92.789 874.87 69.6455 903.419 69.6455C931.968 69.6455 955.111 92.789 955.111 121.338L955.111 124.333L958.757 124.333L958.757 121.077C958.757 90.6588 934.098 65.9996 903.679 65.9996C873.261 65.9996 848.602 90.6588 848.602 121.077Z" fill="#F6F2ED" stroke="black" stroke-width="2"/>
<path d="M686.999 193.713C744.899 207.01 776.813 220.25 793.8 231.983C802.284 237.843 806.987 243.288 809.371 248.119C811.745 252.929 811.85 257.191 811.027 260.777C810.979 260.983 810.789 261.317 810.214 261.761C809.649 262.197 808.814 262.66 807.683 263.152C805.422 264.134 802.163 265.15 797.973 266.285C789.551 268.565 777.781 271.222 763.206 275.036C734.185 282.632 694.72 294.656 652.044 316.611C635.412 325.168 621.624 328.839 609.519 329.39C597.419 329.942 586.934 327.38 576.895 323.372C566.818 319.348 557.27 313.907 546.924 308.67C536.611 303.449 525.586 298.479 512.724 295.525C483.777 288.878 464.323 282.602 451.929 276.445C439.484 270.263 434.449 264.349 433.726 258.574C432.995 252.746 436.573 246.559 442.738 239.621C448.864 232.727 457.226 225.42 465.644 217.267C489.913 199.412 516.335 186.91 551.095 182.162C585.904 177.408 629.131 180.425 686.999 193.713Z" fill="#C6A177" stroke="black" stroke-width="2"/>
<path d="M980.893 124.334L981.081 124.34C989.048 124.831 995.476 156.354 995.476 195.168C995.476 233.982 989.048 265.505 981.081 265.996L980.893 266.001L827.248 266.001C832.713 265.997 837.144 234.286 837.144 195.168C837.144 156.051 832.713 124.339 827.248 124.334L980.893 124.334Z" fill="#F6F2ED"/>
<path d="M980.893 124.334L980.924 123.335L980.908 123.334L980.893 123.334L980.893 124.334ZM981.081 124.34L981.143 123.342L981.127 123.341L981.112 123.341L981.081 124.34ZM995.476 195.168L996.476 195.168V195.168L995.476 195.168ZM981.081 265.996L981.112 266.995L981.127 266.995L981.143 266.994L981.081 265.996ZM980.893 266.001L980.893 267.001L980.908 267.001L980.924 267.001L980.893 266.001ZM827.248 266.001L827.247 265.001L827.248 267.001L827.248 266.001ZM837.144 195.168L838.144 195.168V195.168L837.144 195.168ZM827.248 124.334L827.248 123.334L827.247 125.334L827.248 124.334ZM980.893 124.334L980.861 125.334L981.05 125.34L981.081 124.34L981.112 123.341L980.924 123.335L980.893 124.334ZM981.081 124.34L981.02 125.338C981.674 125.379 982.425 125.743 983.263 126.623C984.1 127.501 984.951 128.82 985.788 130.585C987.461 134.11 988.992 139.22 990.286 145.583C992.872 158.294 994.476 175.808 994.476 195.168L995.476 195.168L996.476 195.168C996.476 175.715 994.866 158.061 992.246 145.184C990.938 138.753 989.368 133.464 987.595 129.727C986.709 127.861 985.75 126.334 984.711 125.243C983.672 124.153 982.479 123.425 981.143 123.342L981.081 124.34ZM995.476 195.168L994.476 195.168C994.476 214.529 992.872 232.043 990.286 244.754C988.992 251.117 987.461 256.226 985.788 259.751C984.951 261.516 984.1 262.835 983.263 263.713C982.425 264.593 981.674 264.957 981.02 264.997L981.081 265.996L981.143 266.994C982.479 266.911 983.672 266.183 984.711 265.093C985.75 264.002 986.709 262.475 987.595 260.609C989.368 256.872 990.938 251.583 992.246 245.152C994.866 232.276 996.476 214.622 996.476 195.168L995.476 195.168ZM981.081 265.996L981.05 264.996L980.862 265.002L980.893 266.001L980.924 267.001L981.112 266.995L981.081 265.996ZM980.893 266.001L980.893 265.001L827.248 265.001L827.248 266.001L827.248 267.001L980.893 267.001L980.893 266.001ZM827.248 266.001L827.249 267.001C828.448 267.001 829.375 266.14 830.068 265.125C830.789 264.068 831.446 262.574 832.049 260.746C833.261 257.077 834.337 251.822 835.235 245.391C837.034 232.514 838.144 214.759 838.144 195.168L837.144 195.168L836.144 195.168C836.144 214.696 835.037 232.355 833.255 245.114C832.362 251.501 831.306 256.619 830.15 260.119C829.57 261.876 828.983 263.166 828.416 263.997C827.821 264.87 827.415 265.001 827.247 265.001L827.248 266.001ZM837.144 195.168L838.144 195.168C838.144 175.578 837.034 157.822 835.235 144.946C834.337 138.515 833.261 133.259 832.049 129.59C831.446 127.762 830.789 126.268 830.068 125.211C829.375 124.196 828.448 123.335 827.249 123.334L827.248 124.334L827.247 125.334C827.415 125.335 827.821 125.466 828.416 126.339C828.983 127.17 829.57 128.46 830.15 130.217C831.306 133.717 832.362 138.835 833.255 145.222C835.037 157.982 836.144 175.641 836.144 195.168L837.144 195.168ZM827.248 124.334L827.248 125.334L980.893 125.334L980.893 124.334L980.893 123.334L827.248 123.334L827.248 124.334Z" fill="black"/>
</svg>
