<svg width="1280" height="431" viewBox="0 0 1280 431" fill="none" xmlns="http://www.w3.org/2000/svg">
<path d="M420.76 253.52C418.813 253.52 417.067 253.227 415.52 252.64C413.973 252.053 412.667 251.2 411.6 250.08C410.533 248.933 409.72 247.533 409.16 245.88C408.6 244.2 408.32 242.28 408.32 240.12C408.32 237.933 408.6 235.973 409.16 234.24C409.747 232.507 410.573 231.04 411.64 229.84C412.707 228.613 413.987 227.68 415.48 227.04C416.973 226.4 418.64 226.08 420.48 226.08C421.893 226.08 423.2 226.28 424.4 226.68C425.6 227.053 426.64 227.6 427.52 228.32C428.4 229.04 429.08 229.92 429.56 230.96C430.067 232 430.333 233.173 430.36 234.48L426.24 235.52C426.267 234.24 426 233.187 425.44 232.36C424.907 231.507 424.187 230.867 423.28 230.44C422.373 230.013 421.4 229.8 420.36 229.8C419.4 229.8 418.467 229.987 417.56 230.36C416.653 230.733 415.84 231.333 415.12 232.16C414.427 232.96 413.867 234 413.44 235.28C413.04 236.56 412.84 238.107 412.84 239.92C412.84 242.24 413.173 244.133 413.84 245.6C414.533 247.04 415.48 248.107 416.68 248.8C417.907 249.467 419.307 249.8 420.88 249.8C422.453 249.8 423.707 249.493 424.64 248.88C425.573 248.267 426.253 247.453 426.68 246.44C427.133 245.4 427.387 244.227 427.44 242.92L431.32 243.6C431.293 244.96 431.08 246.253 430.68 247.48C430.28 248.68 429.653 249.733 428.8 250.64C427.973 251.547 426.893 252.253 425.56 252.76C424.227 253.267 422.627 253.52 420.76 253.52ZM435.836 253V224.8H440.116V253H435.836ZM446.109 253V232.2H450.429V253H446.109ZM448.269 228.72C447.336 228.72 446.629 228.533 446.149 228.16C445.669 227.76 445.429 227.173 445.429 226.4C445.429 225.653 445.669 225.08 446.149 224.68C446.629 224.28 447.336 224.08 448.269 224.08C449.229 224.08 449.949 224.28 450.429 224.68C450.909 225.08 451.149 225.653 451.149 226.4C451.149 227.173 450.909 227.76 450.429 228.16C449.949 228.533 449.229 228.72 448.269 228.72ZM465.581 253.52C463.794 253.52 462.248 253.24 460.941 252.68C459.661 252.12 458.608 251.347 457.781 250.36C456.954 249.373 456.341 248.24 455.941 246.96C455.541 245.68 455.341 244.307 455.341 242.84C455.341 241.267 455.554 239.813 455.981 238.48C456.408 237.12 457.034 235.933 457.861 234.92C458.714 233.88 459.768 233.08 461.021 232.52C462.274 231.96 463.728 231.68 465.381 231.68C467.008 231.68 468.421 231.96 469.621 232.52C470.848 233.053 471.848 233.827 472.621 234.84C473.394 235.827 473.901 236.987 474.141 238.32L470.061 239.56C469.981 238.787 469.754 238.067 469.381 237.4C469.008 236.733 468.474 236.213 467.781 235.84C467.088 235.44 466.248 235.24 465.261 235.24C464.328 235.24 463.514 235.427 462.821 235.8C462.128 236.147 461.554 236.667 461.101 237.36C460.648 238.027 460.301 238.813 460.061 239.72C459.848 240.627 459.741 241.627 459.741 242.72C459.741 244.213 459.941 245.52 460.341 246.64C460.768 247.733 461.421 248.587 462.301 249.2C463.181 249.787 464.288 250.08 465.621 250.08C466.741 250.08 467.661 249.88 468.381 249.48C469.101 249.08 469.661 248.547 470.061 247.88C470.461 247.187 470.728 246.387 470.861 245.48L474.741 246.4C474.581 247.493 474.261 248.493 473.781 249.4C473.301 250.28 472.674 251.027 471.901 251.64C471.128 252.253 470.208 252.72 469.141 253.04C468.101 253.36 466.914 253.52 465.581 253.52ZM478.648 253V224.76H482.928V240.72C483.915 240.187 484.848 239.573 485.728 238.88C486.635 238.16 487.462 237.413 488.208 236.64C488.982 235.867 489.648 235.107 490.208 234.36C490.795 233.587 491.248 232.867 491.568 232.2H496.608C496.128 233.213 495.515 234.227 494.768 235.24C494.048 236.227 493.222 237.16 492.288 238.04C491.355 238.893 490.328 239.64 489.208 240.28C488.115 240.893 486.968 241.32 485.768 241.56V242.08C487.262 241.92 488.542 242.04 489.608 242.44C490.675 242.84 491.595 243.44 492.368 244.24C493.142 245.04 493.822 245.973 494.408 247.04C495.022 248.08 495.595 249.147 496.128 250.24L497.248 253H492.448L491.648 251.12C491.062 249.76 490.435 248.56 489.768 247.52C489.128 246.453 488.355 245.613 487.448 245C486.568 244.387 485.475 244.08 484.168 244.08H482.928V253H478.648ZM517.794 253.44C515.741 253.44 514.207 252.88 513.194 251.76C512.207 250.64 511.714 248.92 511.714 246.6V235.76H508.634L508.714 232.2H510.714C511.407 232.2 511.927 232.093 512.274 231.88C512.621 231.64 512.834 231.227 512.914 230.64L513.314 227.56H515.914V232.2H521.634V235.84H515.914V246.48C515.914 247.52 516.154 248.267 516.634 248.72C517.114 249.173 517.821 249.4 518.754 249.4C519.261 249.4 519.767 249.347 520.274 249.24C520.807 249.107 521.314 248.867 521.794 248.52V252.72C520.994 252.987 520.261 253.173 519.594 253.28C518.927 253.387 518.327 253.44 517.794 253.44ZM534.916 253.52C532.916 253.52 531.143 253.093 529.596 252.24C528.049 251.387 526.836 250.147 525.956 248.52C525.103 246.893 524.676 244.893 524.676 242.52C524.676 240.093 525.129 238.08 526.036 236.48C526.943 234.88 528.156 233.68 529.676 232.88C531.223 232.08 532.956 231.68 534.876 231.68C536.849 231.68 538.609 232.093 540.156 232.92C541.703 233.747 542.916 234.973 543.796 236.6C544.703 238.227 545.156 240.253 545.156 242.68C545.156 245.08 544.703 247.093 543.796 248.72C542.916 250.32 541.703 251.52 540.156 252.32C538.609 253.12 536.863 253.52 534.916 253.52ZM535.076 250.08C536.276 250.08 537.303 249.8 538.156 249.24C539.009 248.68 539.663 247.853 540.116 246.76C540.569 245.667 540.796 244.36 540.796 242.84C540.796 241.267 540.556 239.92 540.076 238.8C539.596 237.653 538.903 236.773 537.996 236.16C537.116 235.547 536.036 235.24 534.756 235.24C533.609 235.24 532.596 235.52 531.716 236.08C530.863 236.613 530.209 237.427 529.756 238.52C529.303 239.587 529.076 240.893 529.076 242.44C529.076 244.867 529.609 246.747 530.676 248.08C531.743 249.413 533.209 250.08 535.076 250.08ZM567.74 253.52C566.3 253.52 565.02 253.373 563.9 253.08C562.78 252.787 561.82 252.373 561.02 251.84C560.247 251.28 559.647 250.613 559.22 249.84C558.794 249.067 558.54 248.227 558.46 247.32L561.98 246.16C561.98 246.933 562.22 247.627 562.7 248.24C563.18 248.853 563.86 249.333 564.74 249.68C565.647 250 566.727 250.16 567.98 250.16C569.447 250.16 570.58 249.92 571.38 249.44C572.18 248.96 572.58 248.293 572.58 247.44C572.58 246.8 572.354 246.293 571.9 245.92C571.474 245.547 570.847 245.24 570.02 245C569.22 244.76 568.274 244.533 567.18 244.32C566.194 244.107 565.207 243.867 564.22 243.6C563.26 243.307 562.367 242.933 561.54 242.48C560.74 242.027 560.087 241.44 559.58 240.72C559.1 239.973 558.86 239.04 558.86 237.92C558.86 236.64 559.194 235.547 559.86 234.64C560.527 233.707 561.487 232.987 562.74 232.48C564.02 231.947 565.54 231.68 567.3 231.68C569.007 231.68 570.474 231.933 571.7 232.44C572.954 232.947 573.954 233.653 574.7 234.56C575.447 235.467 575.9 236.533 576.06 237.76L572.38 238.84C572.327 238.013 572.074 237.32 571.62 236.76C571.194 236.2 570.607 235.787 569.86 235.52C569.114 235.227 568.234 235.08 567.22 235.08C565.887 235.08 564.834 235.32 564.06 235.8C563.314 236.28 562.94 236.933 562.94 237.76C562.94 238.4 563.167 238.92 563.62 239.32C564.1 239.693 564.74 240 565.54 240.24C566.367 240.453 567.3 240.667 568.34 240.88C569.407 241.093 570.434 241.333 571.42 241.6C572.407 241.867 573.287 242.227 574.06 242.68C574.86 243.107 575.487 243.693 575.94 244.44C576.42 245.16 576.66 246.08 576.66 247.2C576.66 248.56 576.287 249.72 575.54 250.68C574.82 251.613 573.794 252.32 572.46 252.8C571.127 253.28 569.554 253.52 567.74 253.52ZM581.266 259.56V242.68V232.2H585.026L584.906 237.68L585.546 237.72C585.839 236.467 586.279 235.4 586.866 234.52C587.452 233.613 588.199 232.92 589.106 232.44C590.039 231.933 591.146 231.68 592.426 231.68C594.292 231.68 595.866 232.147 597.146 233.08C598.452 234.013 599.426 235.307 600.066 236.96C600.732 238.613 601.066 240.507 601.066 242.64C601.066 244.72 600.746 246.587 600.106 248.24C599.492 249.867 598.559 251.16 597.306 252.12C596.052 253.053 594.519 253.52 592.706 253.52C591.292 253.52 590.119 253.24 589.186 252.68C588.252 252.093 587.492 251.333 586.906 250.4C586.319 249.44 585.866 248.387 585.546 247.24H584.826C584.986 247.96 585.119 248.707 585.226 249.48C585.332 250.227 585.426 250.973 585.506 251.72C585.586 252.467 585.626 253.173 585.626 253.84V259.56H581.266ZM591.426 249.88C592.519 249.88 593.439 249.573 594.186 248.96C594.959 248.32 595.546 247.453 595.946 246.36C596.346 245.267 596.546 244.013 596.546 242.6C596.546 241.133 596.332 239.867 595.906 238.8C595.506 237.733 594.919 236.907 594.146 236.32C593.372 235.707 592.452 235.4 591.386 235.4C590.452 235.4 589.626 235.613 588.906 236.04C588.186 236.467 587.572 237.027 587.066 237.72C586.586 238.387 586.212 239.133 585.946 239.96C585.706 240.76 585.586 241.547 585.586 242.32V242.92C585.586 243.453 585.666 244.027 585.826 244.64C585.986 245.253 586.212 245.867 586.506 246.48C586.826 247.093 587.212 247.667 587.666 248.2C588.146 248.707 588.692 249.12 589.306 249.44C589.946 249.733 590.652 249.88 591.426 249.88ZM605.992 253V232.2H610.312V253H605.992ZM608.152 228.72C607.219 228.72 606.512 228.533 606.032 228.16C605.552 227.76 605.312 227.173 605.312 226.4C605.312 225.653 605.552 225.08 606.032 224.68C606.512 224.28 607.219 224.08 608.152 224.08C609.112 224.08 609.832 224.28 610.312 224.68C610.792 225.08 611.032 225.653 611.032 226.4C611.032 227.173 610.792 227.76 610.312 228.16C609.832 228.533 609.112 228.72 608.152 228.72ZM616.344 253V224.8H620.624V253H616.344ZM626.617 253V224.8H630.897V253H626.617ZM653.614 253.44C651.561 253.44 650.028 252.88 649.014 251.76C648.028 250.64 647.534 248.92 647.534 246.6V235.76H644.454L644.534 232.2H646.534C647.228 232.2 647.748 232.093 648.094 231.88C648.441 231.64 648.654 231.227 648.734 230.64L649.134 227.56H651.734V232.2H657.454V235.84H651.734V246.48C651.734 247.52 651.974 248.267 652.454 248.72C652.934 249.173 653.641 249.4 654.574 249.4C655.081 249.4 655.588 249.347 656.094 249.24C656.628 249.107 657.134 248.867 657.614 248.52V252.72C656.814 252.987 656.081 253.173 655.414 253.28C654.748 253.387 654.148 253.44 653.614 253.44ZM661.93 253V240.24V224.8H666.33V231.28C666.33 231.84 666.316 232.427 666.29 233.04C666.263 233.627 666.21 234.227 666.13 234.84C666.05 235.453 665.97 236.067 665.89 236.68C665.81 237.293 665.716 237.92 665.61 238.56H666.33C666.73 237.067 667.223 235.813 667.81 234.8C668.423 233.76 669.183 232.987 670.09 232.48C671.023 231.947 672.143 231.68 673.45 231.68C675.85 231.68 677.636 232.52 678.81 234.2C679.983 235.853 680.57 238.347 680.57 241.68V253H676.17V242.24C676.17 239.893 675.81 238.173 675.09 237.08C674.396 235.987 673.343 235.44 671.93 235.44C670.756 235.44 669.77 235.787 668.97 236.48C668.196 237.173 667.583 238.107 667.13 239.28C666.676 240.453 666.383 241.787 666.25 243.28V253H661.93ZM695.426 253.52C693.772 253.52 692.306 253.28 691.026 252.8C689.746 252.293 688.666 251.587 687.786 250.68C686.906 249.747 686.239 248.64 685.786 247.36C685.332 246.053 685.106 244.587 685.106 242.96C685.106 241.333 685.332 239.84 685.786 238.48C686.239 237.093 686.879 235.893 687.706 234.88C688.559 233.867 689.599 233.08 690.826 232.52C692.079 231.96 693.492 231.68 695.066 231.68C696.532 231.68 697.839 231.92 698.986 232.4C700.159 232.88 701.146 233.613 701.946 234.6C702.746 235.56 703.346 236.773 703.746 238.24C704.146 239.68 704.292 241.373 704.186 243.32L687.906 243.44V240.72L701.626 240.6L700.106 242.28C700.266 240.68 700.132 239.36 699.706 238.32C699.279 237.28 698.666 236.507 697.866 236C697.066 235.493 696.146 235.24 695.106 235.24C693.932 235.24 692.906 235.547 692.026 236.16C691.172 236.747 690.506 237.613 690.026 238.76C689.546 239.907 689.306 241.28 689.306 242.88C689.306 245.28 689.839 247.093 690.906 248.32C691.972 249.52 693.492 250.12 695.466 250.12C696.292 250.12 696.999 250.027 697.586 249.84C698.172 249.627 698.666 249.36 699.066 249.04C699.466 248.693 699.786 248.293 700.026 247.84C700.292 247.36 700.506 246.867 700.666 246.36L704.466 247.24C704.226 248.227 703.852 249.107 703.346 249.88C702.866 250.627 702.252 251.28 701.506 251.84C700.759 252.373 699.879 252.787 698.866 253.08C697.879 253.373 696.732 253.52 695.426 253.52ZM725.802 253.44C723.749 253.44 722.215 252.88 721.202 251.76C720.215 250.64 719.722 248.92 719.722 246.6V235.76H716.642L716.722 232.2H718.722C719.415 232.2 719.935 232.093 720.282 231.88C720.629 231.64 720.842 231.227 720.922 230.64L721.322 227.56H723.922V232.2H729.642V235.84H723.922V246.48C723.922 247.52 724.162 248.267 724.642 248.72C725.122 249.173 725.829 249.4 726.762 249.4C727.269 249.4 727.775 249.347 728.282 249.24C728.815 249.107 729.322 248.867 729.802 248.52V252.72C729.002 252.987 728.269 253.173 727.602 253.28C726.935 253.387 726.335 253.44 725.802 253.44ZM743.082 253.52C741.429 253.52 739.962 253.28 738.682 252.8C737.402 252.293 736.322 251.587 735.442 250.68C734.562 249.747 733.895 248.64 733.442 247.36C732.989 246.053 732.762 244.587 732.762 242.96C732.762 241.333 732.989 239.84 733.442 238.48C733.895 237.093 734.535 235.893 735.362 234.88C736.215 233.867 737.255 233.08 738.482 232.52C739.735 231.96 741.149 231.68 742.722 231.68C744.189 231.68 745.495 231.92 746.642 232.4C747.815 232.88 748.802 233.613 749.602 234.6C750.402 235.56 751.002 236.773 751.402 238.24C751.802 239.68 751.949 241.373 751.842 243.32L735.562 243.44V240.72L749.282 240.6L747.762 242.28C747.922 240.68 747.789 239.36 747.362 238.32C746.935 237.28 746.322 236.507 745.522 236C744.722 235.493 743.802 235.24 742.762 235.24C741.589 235.24 740.562 235.547 739.682 236.16C738.829 236.747 738.162 237.613 737.682 238.76C737.202 239.907 736.962 241.28 736.962 242.88C736.962 245.28 737.495 247.093 738.562 248.32C739.629 249.52 741.149 250.12 743.122 250.12C743.949 250.12 744.655 250.027 745.242 249.84C745.829 249.627 746.322 249.36 746.722 249.04C747.122 248.693 747.442 248.293 747.682 247.84C747.949 247.36 748.162 246.867 748.322 246.36L752.122 247.24C751.882 248.227 751.509 249.107 751.002 249.88C750.522 250.627 749.909 251.28 749.162 251.84C748.415 252.373 747.535 252.787 746.522 253.08C745.535 253.373 744.389 253.52 743.082 253.52ZM761.652 253.52C760.505 253.52 759.478 253.307 758.572 252.88C757.665 252.427 756.945 251.76 756.412 250.88C755.905 250 755.652 248.907 755.652 247.6C755.652 246.56 755.838 245.667 756.212 244.92C756.612 244.147 757.198 243.507 757.972 243C758.772 242.467 759.785 242.04 761.012 241.72C762.238 241.373 763.692 241.08 765.372 240.84C766.305 240.707 767.065 240.573 767.652 240.44C768.265 240.307 768.705 240.093 768.972 239.8C769.265 239.507 769.412 239.067 769.412 238.48C769.412 237.573 769.092 236.8 768.452 236.16C767.838 235.493 766.838 235.16 765.452 235.16C764.678 235.16 763.905 235.293 763.132 235.56C762.385 235.827 761.732 236.267 761.172 236.88C760.638 237.467 760.278 238.267 760.092 239.28L756.172 238.04C756.412 237.027 756.798 236.133 757.332 235.36C757.865 234.56 758.532 233.893 759.332 233.36C760.132 232.8 761.052 232.387 762.092 232.12C763.158 231.827 764.318 231.68 765.572 231.68C767.412 231.68 768.932 231.987 770.132 232.6C771.332 233.213 772.225 234.16 772.812 235.44C773.425 236.693 773.732 238.307 773.732 240.28V244.52C773.732 245.4 773.745 246.333 773.772 247.32C773.825 248.28 773.878 249.253 773.932 250.24C774.012 251.2 774.105 252.12 774.212 253H770.252C770.172 252.2 770.092 251.373 770.012 250.52C769.958 249.667 769.905 248.8 769.852 247.92H769.252C768.878 248.933 768.345 249.867 767.652 250.72C766.985 251.573 766.145 252.253 765.132 252.76C764.145 253.267 762.985 253.52 761.652 253.52ZM763.172 250.16C763.732 250.16 764.292 250.067 764.852 249.88C765.438 249.693 766.012 249.413 766.572 249.04C767.158 248.64 767.692 248.133 768.172 247.52C768.678 246.907 769.118 246.173 769.492 245.32L769.452 241.56L770.492 241.76C770.038 242.16 769.465 242.467 768.772 242.68C768.105 242.893 767.372 243.067 766.572 243.2C765.772 243.307 764.972 243.44 764.172 243.6C763.398 243.733 762.678 243.933 762.012 244.2C761.372 244.44 760.852 244.787 760.452 245.24C760.078 245.693 759.892 246.32 759.892 247.12C759.892 248.107 760.198 248.867 760.812 249.4C761.425 249.907 762.212 250.16 763.172 250.16Z" fill="black"/>
<ellipse cx="827.248" cy="195.168" rx="70.8334" ry="9.89577" transform="rotate(-90 827.248 195.168)" fill="#D9D9D9" stroke="black" stroke-width="2"/>
<path d="M848.601 121.078L848.601 124.333L851.726 124.333L851.726 121.338C851.726 92.7895 874.869 69.646 903.418 69.646C931.967 69.646 955.11 92.7895 955.11 121.338L955.11 124.333L958.756 124.333L958.756 121.078C958.756 90.6593 934.097 66.0001 903.678 66.0001C873.26 66.0001 848.601 90.6593 848.601 121.078Z" fill="#F6F2ED" stroke="black" stroke-width="2"/>
<path d="M686.996 193.713C744.897 207.009 776.812 220.25 793.798 231.982C802.283 237.842 806.986 243.287 809.37 248.119C811.743 252.929 811.848 257.191 811.025 260.776C810.978 260.982 810.788 261.317 810.212 261.761C809.647 262.197 808.813 262.66 807.681 263.152C805.421 264.134 802.162 265.15 797.971 266.284C789.549 268.565 777.779 271.221 763.205 275.036C734.183 282.631 694.718 294.656 652.042 316.611C585.452 350.869 501.148 341.72 450.224 330.025C392.28 316.719 351.011 303.739 328.419 290.092C317.104 283.257 310.698 276.386 309.028 269.426C307.383 262.572 310.259 255.252 318.486 247.264C330.557 238.399 352.343 228.941 380.146 220.158C407.962 211.371 441.702 203.289 477.545 197.157C549.262 184.889 629.254 180.453 686.996 193.713Z" fill="#C6A177" stroke="black" stroke-width="2"/>
<path d="M980.893 124.334L981.081 124.34C989.048 124.831 995.476 156.354 995.476 195.168C995.476 233.982 989.048 265.505 981.081 265.996L980.893 266.001L827.248 266.001C832.713 265.997 837.144 234.286 837.144 195.168C837.144 156.051 832.713 124.339 827.248 124.334L980.893 124.334Z" fill="#F6F2ED"/>
<path d="M980.893 124.334L980.924 123.335L980.908 123.334L980.893 123.334L980.893 124.334ZM981.081 124.34L981.143 123.342L981.127 123.341L981.112 123.341L981.081 124.34ZM995.476 195.168L996.476 195.168V195.168L995.476 195.168ZM981.081 265.996L981.112 266.995L981.127 266.995L981.143 266.994L981.081 265.996ZM980.893 266.001L980.893 267.001L980.908 267.001L980.924 267.001L980.893 266.001ZM827.248 266.001L827.247 265.001L827.248 267.001L827.248 266.001ZM837.144 195.168L838.144 195.168V195.168L837.144 195.168ZM827.248 124.334L827.248 123.334L827.247 125.334L827.248 124.334ZM980.893 124.334L980.861 125.334L981.05 125.34L981.081 124.34L981.112 123.341L980.924 123.335L980.893 124.334ZM981.081 124.34L981.02 125.338C981.674 125.379 982.425 125.743 983.263 126.623C984.1 127.501 984.951 128.82 985.788 130.585C987.461 134.11 988.992 139.22 990.286 145.583C992.872 158.294 994.476 175.808 994.476 195.168L995.476 195.168L996.476 195.168C996.476 175.715 994.866 158.061 992.246 145.184C990.938 138.753 989.368 133.464 987.595 129.727C986.709 127.861 985.75 126.334 984.711 125.243C983.672 124.153 982.479 123.425 981.143 123.342L981.081 124.34ZM995.476 195.168L994.476 195.168C994.476 214.529 992.872 232.043 990.286 244.754C988.992 251.117 987.461 256.226 985.788 259.751C984.951 261.516 984.1 262.835 983.263 263.713C982.425 264.593 981.674 264.957 981.02 264.997L981.081 265.996L981.143 266.994C982.479 266.911 983.672 266.183 984.711 265.093C985.75 264.002 986.709 262.475 987.595 260.609C989.368 256.872 990.938 251.583 992.246 245.152C994.866 232.276 996.476 214.622 996.476 195.168L995.476 195.168ZM981.081 265.996L981.05 264.996L980.862 265.002L980.893 266.001L980.924 267.001L981.112 266.995L981.081 265.996ZM980.893 266.001L980.893 265.001L827.248 265.001L827.248 266.001L827.248 267.001L980.893 267.001L980.893 266.001ZM827.248 266.001L827.249 267.001C828.448 267.001 829.375 266.14 830.068 265.125C830.789 264.068 831.446 262.574 832.049 260.746C833.261 257.077 834.337 251.822 835.235 245.391C837.034 232.514 838.144 214.759 838.144 195.168L837.144 195.168L836.144 195.168C836.144 214.696 835.037 232.355 833.255 245.114C832.362 251.501 831.306 256.619 830.15 260.119C829.57 261.876 828.983 263.166 828.416 263.997C827.821 264.87 827.415 265.001 827.247 265.001L827.248 266.001ZM837.144 195.168L838.144 195.168C838.144 175.578 837.034 157.822 835.235 144.946C834.337 138.515 833.261 133.259 832.049 129.59C831.446 127.762 830.789 126.268 830.068 125.211C829.375 124.196 828.448 123.335 827.249 123.334L827.248 124.334L827.247 125.334C827.415 125.335 827.821 125.466 828.416 126.339C828.983 127.17 829.57 128.46 830.15 130.217C831.306 133.717 832.362 138.835 833.255 145.222C835.037 157.982 836.144 175.641 836.144 195.168L837.144 195.168ZM827.248 124.334L827.248 125.334L980.893 125.334L980.893 124.334L980.893 123.334L827.248 123.334L827.248 124.334Z" fill="black"/>
</svg>
