<svg width="54" height="86" viewBox="0 0 54 86" fill="none" xmlns="http://www.w3.org/2000/svg">
<mask id="path-1-inside-1_83_526" fill="white">
<path d="M37.7256 16L39.1836 24.5352C40.3535 31.3825 44.7918 37.1368 48.7734 42.8291C52.0589 47.5262 54 53.2254 54 59.1641C53.9998 73.9852 41.9115 86 27 86C12.0885 86 0.000232321 73.9852 0 59.1641C0 53.2254 1.94105 47.5262 5.22656 42.8291C9.20819 37.1368 13.6465 31.3825 14.8164 24.5352L16.2744 16H37.7256Z"/>
</mask>
<path d="M37.7256 16L39.1836 24.5352C40.3535 31.3825 44.7918 37.1368 48.7734 42.8291C52.0589 47.5262 54 53.2254 54 59.1641C53.9998 73.9852 41.9115 86 27 86C12.0885 86 0.000232321 73.9852 0 59.1641C0 53.2254 1.94105 47.5262 5.22656 42.8291C9.20819 37.1368 13.6465 31.3825 14.8164 24.5352L16.2744 16H37.7256Z" fill="#F6F16D"/>
<path d="M37.7256 16L39.697 15.6632L39.4129 14H37.7256V16ZM39.1836 24.5352L37.2122 24.8719L37.2122 24.872L39.1836 24.5352ZM48.7734 42.8291L50.4123 41.6828L50.4123 41.6828L48.7734 42.8291ZM54 59.1641L56 59.1641V59.1641H54ZM0 59.1641L-2 59.1641L-2 59.1641L0 59.1641ZM5.22656 42.8291L3.5877 41.6828L3.58769 41.6828L5.22656 42.8291ZM14.8164 24.5352L16.7878 24.872L16.7878 24.8719L14.8164 24.5352ZM16.2744 16V14H14.5871L14.303 15.6632L16.2744 16ZM37.7256 16L35.7541 16.3368L37.2122 24.8719L39.1836 24.5352L41.155 24.1984L39.697 15.6632L37.7256 16ZM39.1836 24.5352L37.2122 24.872C38.4757 32.2671 43.2663 38.4452 47.1346 43.9755L48.7734 42.8291L50.4123 41.6828C46.3173 35.8284 42.2314 30.498 41.155 24.1983L39.1836 24.5352ZM48.7734 42.8291L47.1346 43.9754C50.2002 48.3582 52 53.6611 52 59.1641H54H56C56 52.7896 53.9177 46.6943 50.4123 41.6828L48.7734 42.8291ZM54 59.1641L52 59.164C51.9998 72.8691 40.8185 84 27 84V86V88C43.0046 88 55.9998 75.1012 56 59.1641L54 59.1641ZM27 86V84C13.1815 84 2.00021 72.8691 2 59.164L0 59.1641L-2 59.1641C-1.99975 75.1012 10.9954 88 27 88V86ZM0 59.1641H2C2 53.6611 3.79984 48.3582 6.86543 43.9754L5.22656 42.8291L3.58769 41.6828C0.0822689 46.6943 -2 52.7896 -2 59.1641H0ZM5.22656 42.8291L6.86543 43.9755C10.7337 38.4452 15.5243 32.2671 16.7878 24.872L14.8164 24.5352L12.845 24.1983C11.7686 30.498 7.68265 35.8284 3.5877 41.6828L5.22656 42.8291ZM14.8164 24.5352L16.7878 24.8719L18.2459 16.3368L16.2744 16L14.303 15.6632L12.845 24.1984L14.8164 24.5352ZM16.2744 16V18H37.7256V16V14H16.2744V16Z" fill="#2B2B2B" mask="url(#path-1-inside-1_83_526)"/>
<mask id="path-3-inside-2_83_526" fill="white">
<path d="M15 6C15 2.68629 17.6863 0 21 0H33C36.3137 0 39 2.68629 39 6V17C39 17.5523 38.5523 18 38 18H16C15.4477 18 15 17.5523 15 17V6Z"/>
</mask>
<path d="M15 6C15 2.68629 17.6863 0 21 0H33C36.3137 0 39 2.68629 39 6V17C39 17.5523 38.5523 18 38 18H16C15.4477 18 15 17.5523 15 17V6Z" fill="#353535" stroke="#2B2B2B" stroke-width="4" stroke-linejoin="round" mask="url(#path-3-inside-2_83_526)"/>
<path d="M30.0005 39.5H25.0005V41.5H30.0005V44C30.0005 46.4853 32.0152 48.5 34.5005 48.5C36.9856 48.4998 39.0005 46.4852 39.0005 44C39.0005 41.5148 36.9856 39.5002 34.5005 39.5H32.0005V17H30.0005V39.5ZM34.5005 41.5C35.8811 41.5002 37.0005 42.6194 37.0005 44C37.0005 45.3806 35.8811 46.4998 34.5005 46.5C33.1198 46.5 32.0005 45.3807 32.0005 44V41.5H34.5005Z" fill="#2B2B2B"/>
<path d="M24 39.5H29V41.5H24V44C24 46.4853 21.9853 48.5 19.5 48.5C17.0149 48.4998 15 46.4852 15 44C15 41.5148 17.0149 39.5002 19.5 39.5H22V17H24V39.5ZM19.5 41.5C18.1194 41.5002 17 42.6194 17 44C17 45.3806 18.1194 46.4998 19.5 46.5C20.8807 46.5 22 45.3807 22 44V41.5H19.5Z" fill="#2B2B2B"/>
</svg>
